<svg xmlns="http://www.w3.org/2000/svg" viewBox="0 0 32 32">
  <defs>
    <linearGradient id="g" x1="0" y1="0" x2="1" y2="1">
      <stop offset="0" stop-color="#0ea5e9" />
      <stop offset="1" stop-color="#6366f1" />
    </linearGradient>
  </defs>
  <rect x="2" y="2" width="28" height="28" rx="8" fill="url(#g)" />
  <path
    d="M11 10a1 1 0 0 1 1-1h8a1 1 0 0 1 1 1v7.5a5.5 5.5 0 0 1-5.5 5.5h-.5a5.5 5.5 0 0 1-5-3.3 1 1 0 1 1 1.84-.8A3.5 3.5 0 0 0 15 20h.5A3.5 3.5 0 0 0 19 16.5V11h-6v5.5a1 1 0 0 1-2 0z"
    fill="#e5f4ff"
  />
</svg>


